<?xml version="1.0" encoding="utf-8"?>
<!-- Generator: Adobe Illustrator 21.0.2, SVG Export Plug-In . SVG Version: 6.00 Build 0)  -->
<svg version="1.1" id="svg-icon" xmlns="http://www.w3.org/2000/svg" xmlns:xlink="http://www.w3.org/1999/xlink" x="0px" y="0px"
	 width="136" height="136" viewBox="0 0 136 136" style="enable-background:new 0 0 136 136;" xml:space="preserve">
<g id="svg-icon">
	<path fill="#6F6F6F" d="M92,20H44c-2.2,0-4,1.8-4,4v88c0,2.2,1.8,4,4,4h48c2.2,0,4-1.8,4-4V24C96,21.8,94.2,20,92,20z M62,24h12
		c1.1,0,2,0.9,2,2c0,1.1-0.9,2-2,2H62c-1.1,0-2-0.9-2-2C60,24.9,60.9,24,62,24z M68,112c-2.2,0-4-1.8-4-4c0-2.2,1.8-4,4-4s4,1.8,4,4
		C72,110.2,70.2,112,68,112z M92,100H44V32h48V100z"/>
</g>
</svg>
